<svg width="103" height="33" viewBox="0 0 103 33" fill="none" xmlns="http://www.w3.org/2000/svg">
<path d="M0 16.1719C0 7.33532 7.16344 0.171875 16 0.171875H87C95.8366 0.171875 103 7.33532 103 16.1719C103 25.0084 95.8366 32.1719 87 32.1719H16C7.16344 32.1719 0 25.0084 0 16.1719Z" fill="#CF4D74"/>
<path d="M13.8864 22.1719H12.4091L16.6818 10.5355H18.1364L22.4091 22.1719H20.9318L17.4545 12.3764H17.3636L13.8864 22.1719ZM14.4318 17.6264H20.3864V18.8764H14.4318V17.6264ZM25.3807 16.9219V22.1719H24.0398V13.4446H25.3352V14.8082H25.4489C25.6534 14.3651 25.964 14.009 26.3807 13.7401C26.7973 13.4673 27.3352 13.331 27.9943 13.331C28.5852 13.331 29.1023 13.4522 29.5455 13.6946C29.9886 13.9332 30.3333 14.2969 30.5795 14.7855C30.8258 15.2704 30.9489 15.884 30.9489 16.6264V22.1719H29.608V16.7173C29.608 16.0317 29.4299 15.4976 29.0739 15.1151C28.7178 14.7287 28.2292 14.5355 27.608 14.5355C27.1799 14.5355 26.7973 14.6283 26.4602 14.8139C26.1269 14.9995 25.8636 15.2704 25.6705 15.6264C25.4773 15.9825 25.3807 16.4143 25.3807 16.9219ZM37.1946 13.4446V14.581H32.6719V13.4446H37.1946ZM33.9901 11.3537H35.331V19.6719C35.331 20.0507 35.3859 20.3348 35.4957 20.5241C35.6094 20.7098 35.7533 20.8348 35.9276 20.8991C36.1056 20.9598 36.2931 20.9901 36.4901 20.9901C36.6378 20.9901 36.759 20.9825 36.8537 20.9673C36.9484 20.9484 37.0241 20.9332 37.081 20.9219L37.3537 22.1264C37.2628 22.1605 37.1359 22.1946 36.973 22.2287C36.8101 22.2666 36.6037 22.2855 36.3537 22.2855C35.9749 22.2855 35.6037 22.2041 35.2401 22.0412C34.8802 21.8783 34.581 21.6302 34.3423 21.2969C34.1075 20.9635 33.9901 20.5431 33.9901 20.0355V11.3537ZM39.2116 22.1719V13.4446H40.5526V22.1719H39.2116ZM39.8935 11.9901C39.6321 11.9901 39.4067 11.901 39.2173 11.723C39.0317 11.545 38.9389 11.331 38.9389 11.081C38.9389 10.831 39.0317 10.617 39.2173 10.4389C39.4067 10.2609 39.6321 10.1719 39.8935 10.1719C40.1548 10.1719 40.3783 10.2609 40.5639 10.4389C40.7533 10.617 40.848 10.831 40.848 11.081C40.848 11.331 40.7533 11.545 40.5639 11.723C40.3783 11.901 40.1548 11.9901 39.8935 11.9901ZM50.0767 22.3764C49.5237 22.3764 49.0218 22.2723 48.571 22.0639C48.1203 21.8518 47.7623 21.5469 47.4972 21.1491C47.232 20.7476 47.0994 20.2628 47.0994 19.6946C47.0994 19.1946 47.1979 18.7893 47.3949 18.4787C47.5919 18.1643 47.8551 17.9181 48.1847 17.7401C48.5142 17.562 48.8778 17.4295 49.2756 17.3423C49.6771 17.2514 50.0805 17.1795 50.4858 17.1264C51.0161 17.0582 51.446 17.0071 51.7756 16.973C52.1089 16.9351 52.3513 16.8726 52.5028 16.7855C52.6581 16.6984 52.7358 16.5469 52.7358 16.331V16.2855C52.7358 15.7249 52.5824 15.2893 52.2756 14.9787C51.9725 14.6681 51.5123 14.5128 50.8949 14.5128C50.2547 14.5128 49.7528 14.6529 49.3892 14.9332C49.0256 15.2135 48.7699 15.5128 48.6222 15.831L47.3494 15.3764C47.5767 14.8461 47.8797 14.4332 48.2585 14.1378C48.6411 13.8385 49.0578 13.6302 49.5085 13.5128C49.9631 13.3916 50.41 13.331 50.8494 13.331C51.1297 13.331 51.4517 13.3651 51.8153 13.4332C52.1828 13.4976 52.5369 13.6321 52.8778 13.8366C53.2225 14.0412 53.5085 14.3499 53.7358 14.7628C53.9631 15.1757 54.0767 15.7287 54.0767 16.4219V22.1719H52.7358V20.9901H52.6676C52.5767 21.1795 52.4252 21.3821 52.2131 21.598C52.0009 21.8139 51.7188 21.9976 51.3665 22.1491C51.0142 22.3007 50.5843 22.3764 50.0767 22.3764ZM50.2812 21.1719C50.8116 21.1719 51.2585 21.0677 51.6222 20.8594C51.9896 20.651 52.2661 20.3821 52.4517 20.0526C52.6411 19.723 52.7358 19.3764 52.7358 19.0128V17.7855C52.679 17.8537 52.554 17.9162 52.3608 17.973C52.1714 18.026 51.9517 18.0734 51.7017 18.1151C51.4555 18.1529 51.215 18.187 50.9801 18.2173C50.7491 18.2438 50.5616 18.2666 50.4176 18.2855C50.0691 18.331 49.7434 18.4048 49.4403 18.5071C49.1411 18.6056 48.8987 18.7552 48.7131 18.956C48.5313 19.1529 48.4403 19.4219 48.4403 19.7628C48.4403 20.2287 48.6127 20.581 48.9574 20.8196C49.3059 21.0545 49.7472 21.1719 50.2812 21.1719ZM60.0469 25.6264C59.3991 25.6264 58.8423 25.5431 58.3764 25.3764C57.9105 25.2135 57.5223 24.9976 57.2116 24.7287C56.9048 24.4635 56.6605 24.1795 56.4787 23.8764L57.5469 23.1264C57.6681 23.2855 57.8215 23.4673 58.0071 23.6719C58.1927 23.8802 58.4465 24.0601 58.7685 24.2116C59.0942 24.367 59.5204 24.4446 60.0469 24.4446C60.7514 24.4446 61.3329 24.2741 61.7912 23.9332C62.2495 23.5923 62.4787 23.0582 62.4787 22.331V20.5582H62.3651C62.2666 20.7173 62.1264 20.9143 61.9446 21.1491C61.7666 21.3802 61.509 21.5866 61.1719 21.7685C60.8385 21.9465 60.3878 22.0355 59.8196 22.0355C59.1151 22.0355 58.4825 21.8688 57.9219 21.5355C57.3651 21.2022 56.9238 20.7173 56.598 20.081C56.276 19.4446 56.1151 18.6719 56.1151 17.7628C56.1151 16.8688 56.2723 16.0904 56.5866 15.4276C56.901 14.7609 57.3385 14.2457 57.8991 13.8821C58.4598 13.5147 59.1075 13.331 59.8423 13.331C60.4105 13.331 60.8613 13.4257 61.1946 13.6151C61.5317 13.8007 61.7893 14.0128 61.9673 14.2514C62.1491 14.4863 62.2893 14.6795 62.3878 14.831H62.5241V13.4446H63.8196V22.4219C63.8196 23.1719 63.6491 23.7817 63.3082 24.2514C62.9711 24.7249 62.5166 25.0715 61.9446 25.2912C61.3764 25.5147 60.7438 25.6264 60.0469 25.6264ZM60.0014 20.831C60.5393 20.831 60.9938 20.7079 61.3651 20.4616C61.7363 20.2154 62.0185 19.8613 62.2116 19.3991C62.4048 18.937 62.5014 18.384 62.5014 17.7401C62.5014 17.1113 62.4067 16.5563 62.2173 16.0753C62.0279 15.5942 61.7476 15.2173 61.3764 14.9446C61.0052 14.6719 60.5469 14.5355 60.0014 14.5355C59.4332 14.5355 58.9598 14.6795 58.581 14.9673C58.206 15.2552 57.9238 15.6416 57.7344 16.1264C57.5488 16.6113 57.456 17.1491 57.456 17.7401C57.456 18.3461 57.5507 18.8821 57.7401 19.348C57.9332 19.8101 58.2173 20.1738 58.5923 20.4389C58.9711 20.7003 59.4408 20.831 60.0014 20.831ZM66.2741 22.1719V13.4446H67.6151V22.1719H66.2741ZM66.956 11.9901C66.6946 11.9901 66.4692 11.901 66.2798 11.723C66.0942 11.545 66.0014 11.331 66.0014 11.081C66.0014 10.831 66.0942 10.617 66.2798 10.4389C66.4692 10.2609 66.6946 10.1719 66.956 10.1719C67.2173 10.1719 67.4408 10.2609 67.6264 10.4389C67.8158 10.617 67.9105 10.831 67.9105 11.081C67.9105 11.331 67.8158 11.545 67.6264 11.723C67.4408 11.901 67.2173 11.9901 66.956 11.9901ZM71.4119 16.9219V22.1719H70.071V13.4446H71.3665V14.8082H71.4801C71.6847 14.3651 71.9953 14.009 72.4119 13.7401C72.8286 13.4673 73.3665 13.331 74.0256 13.331C74.6165 13.331 75.1335 13.4522 75.5767 13.6946C76.0199 13.9332 76.3646 14.2969 76.6108 14.7855C76.857 15.2704 76.9801 15.884 76.9801 16.6264V22.1719H75.6392V16.7173C75.6392 16.0317 75.4612 15.4976 75.1051 15.1151C74.7491 14.7287 74.2604 14.5355 73.6392 14.5355C73.2112 14.5355 72.8286 14.6283 72.4915 14.8139C72.1581 14.9995 71.8949 15.2704 71.7017 15.6264C71.5085 15.9825 71.4119 16.4143 71.4119 16.9219ZM82.9531 25.6264C82.3054 25.6264 81.7486 25.5431 81.2827 25.3764C80.8168 25.2135 80.4285 24.9976 80.1179 24.7287C79.8111 24.4635 79.5668 24.1795 79.3849 23.8764L80.4531 23.1264C80.5743 23.2855 80.7277 23.4673 80.9134 23.6719C81.099 23.8802 81.3527 24.0601 81.6747 24.2116C82.0005 24.367 82.4266 24.4446 82.9531 24.4446C83.6577 24.4446 84.2391 24.2741 84.6974 23.9332C85.1558 23.5923 85.3849 23.0582 85.3849 22.331V20.5582H85.2713C85.1728 20.7173 85.0327 20.9143 84.8509 21.1491C84.6728 21.3802 84.4152 21.5866 84.0781 21.7685C83.7448 21.9465 83.294 22.0355 82.7259 22.0355C82.0213 22.0355 81.3887 21.8688 80.8281 21.5355C80.2713 21.2022 79.83 20.7173 79.5043 20.081C79.1823 19.4446 79.0213 18.6719 79.0213 17.7628C79.0213 16.8688 79.1785 16.0904 79.4929 15.4276C79.8073 14.7609 80.2448 14.2457 80.8054 13.8821C81.366 13.5147 82.0137 13.331 82.7486 13.331C83.3168 13.331 83.7675 13.4257 84.1009 13.6151C84.438 13.8007 84.6955 14.0128 84.8736 14.2514C85.0554 14.4863 85.1955 14.6795 85.294 14.831H85.4304V13.4446H86.7259V22.4219C86.7259 23.1719 86.5554 23.7817 86.2145 24.2514C85.8774 24.7249 85.4228 25.0715 84.8509 25.2912C84.2827 25.5147 83.6501 25.6264 82.9531 25.6264ZM82.9077 20.831C83.4455 20.831 83.9001 20.7079 84.2713 20.4616C84.6425 20.2154 84.9247 19.8613 85.1179 19.3991C85.3111 18.937 85.4077 18.384 85.4077 17.7401C85.4077 17.1113 85.313 16.5563 85.1236 16.0753C84.9342 15.5942 84.6539 15.2173 84.2827 14.9446C83.9115 14.6719 83.4531 14.5355 82.9077 14.5355C82.3395 14.5355 81.866 14.6795 81.4872 14.9673C81.1122 15.2552 80.83 15.6416 80.6406 16.1264C80.455 16.6113 80.3622 17.1491 80.3622 17.7401C80.3622 18.3461 80.4569 18.8821 80.6463 19.348C80.8395 19.8101 81.1236 20.1738 81.4986 20.4389C81.8774 20.7003 82.3471 20.831 82.9077 20.831Z" fill="white"/>
</svg>
