<svg width="104" height="33" viewBox="0 0 104 33" fill="none" xmlns="http://www.w3.org/2000/svg">
<path d="M0 16.1719C0 7.33532 7.16344 0.171875 16 0.171875H88C96.8366 0.171875 104 7.33532 104 16.1719C104 25.0084 96.8366 32.1719 88 32.1719H16C7.16344 32.1719 0 25.0084 0 16.1719Z" fill="#CF4D74"/>
<path d="M19.7727 13.4446C19.7045 12.8688 19.428 12.4219 18.9432 12.1037C18.4583 11.7855 17.8636 11.6264 17.1591 11.6264C16.6439 11.6264 16.1932 11.7098 15.8068 11.8764C15.4242 12.0431 15.125 12.2723 14.9091 12.5639C14.697 12.8556 14.5909 13.187 14.5909 13.5582C14.5909 13.8688 14.6648 14.1359 14.8125 14.3594C14.964 14.5791 15.1572 14.7628 15.392 14.9105C15.6269 15.0545 15.8731 15.1738 16.1307 15.2685C16.3883 15.3594 16.625 15.4332 16.8409 15.4901L18.0227 15.8082C18.3258 15.8878 18.6629 15.9976 19.0341 16.1378C19.4091 16.2779 19.767 16.4692 20.108 16.7116C20.4527 16.9503 20.7367 17.2571 20.9602 17.6321C21.1837 18.0071 21.2955 18.4673 21.2955 19.0128C21.2955 19.6416 21.1307 20.2098 20.8011 20.7173C20.4754 21.2249 19.9981 21.6283 19.3693 21.9276C18.7443 22.2268 17.9848 22.3764 17.0909 22.3764C16.2576 22.3764 15.536 22.242 14.9261 21.973C14.3201 21.7041 13.8428 21.3291 13.4943 20.848C13.1496 20.367 12.9545 19.8082 12.9091 19.1719H14.3636C14.4015 19.6113 14.5492 19.9749 14.8068 20.2628C15.0682 20.5469 15.3977 20.759 15.7955 20.8991C16.197 21.0355 16.6288 21.1037 17.0909 21.1037C17.6288 21.1037 18.1117 21.0166 18.5398 20.8423C18.9678 20.6643 19.3068 20.4181 19.5568 20.1037C19.8068 19.7855 19.9318 19.4143 19.9318 18.9901C19.9318 18.6037 19.8239 18.2893 19.608 18.0469C19.392 17.8045 19.108 17.6075 18.7557 17.456C18.4034 17.3045 18.0227 17.1719 17.6136 17.0582L16.1818 16.6491C15.2727 16.3878 14.553 16.0147 14.0227 15.5298C13.4924 15.045 13.2273 14.4105 13.2273 13.6264C13.2273 12.9749 13.4034 12.4067 13.7557 11.9219C14.1117 11.4332 14.589 11.0545 15.1875 10.7855C15.7898 10.5128 16.4621 10.3764 17.2045 10.3764C17.9545 10.3764 18.6212 10.5109 19.2045 10.7798C19.7879 11.045 20.25 11.4086 20.5909 11.8707C20.9356 12.3329 21.1174 12.8575 21.1364 13.4446H19.7727ZM24.6804 18.9901L24.6577 17.331H24.9304L28.7486 13.4446H30.4077L26.3395 17.5582H26.2259L24.6804 18.9901ZM23.4304 22.1719V10.5355H24.7713V22.1719H23.4304ZM28.9759 22.1719L25.5668 17.8537L26.5213 16.9219L30.6804 22.1719H28.9759ZM32.1335 22.1719V13.4446H33.4744V22.1719H32.1335ZM32.8153 11.9901C32.554 11.9901 32.3286 11.901 32.1392 11.723C31.9536 11.545 31.8608 11.331 31.8608 11.081C31.8608 10.831 31.9536 10.617 32.1392 10.4389C32.3286 10.2609 32.554 10.1719 32.8153 10.1719C33.0767 10.1719 33.3002 10.2609 33.4858 10.4389C33.6752 10.617 33.7699 10.831 33.7699 11.081C33.7699 11.331 33.6752 11.545 33.4858 11.723C33.3002 11.901 33.0767 11.9901 32.8153 11.9901ZM37.2713 16.9219V22.1719H35.9304V13.4446H37.2259V14.8082H37.3395C37.544 14.3651 37.8546 14.009 38.2713 13.7401C38.688 13.4673 39.2259 13.331 39.8849 13.331C40.4759 13.331 40.9929 13.4522 41.4361 13.6946C41.8793 13.9332 42.224 14.2969 42.4702 14.7855C42.7164 15.2704 42.8395 15.884 42.8395 16.6264V22.1719H41.4986V16.7173C41.4986 16.0317 41.3205 15.4976 40.9645 15.1151C40.6084 14.7287 40.1198 14.5355 39.4986 14.5355C39.0705 14.5355 38.688 14.6283 38.3509 14.8139C38.0175 14.9995 37.7543 15.2704 37.5611 15.6264C37.3679 15.9825 37.2713 16.4143 37.2713 16.9219ZM53.5852 13.4446V14.581H49.0625V13.4446H53.5852ZM50.3807 11.3537H51.7216V19.6719C51.7216 20.0507 51.7765 20.3348 51.8864 20.5241C52 20.7098 52.1439 20.8348 52.3182 20.8991C52.4962 20.9598 52.6837 20.9901 52.8807 20.9901C53.0284 20.9901 53.1496 20.9825 53.2443 20.9673C53.339 20.9484 53.4148 20.9332 53.4716 20.9219L53.7443 22.1264C53.6534 22.1605 53.5265 22.1946 53.3636 22.2287C53.2008 22.2666 52.9943 22.2855 52.7443 22.2855C52.3655 22.2855 51.9943 22.2041 51.6307 22.0412C51.2708 21.8783 50.9716 21.6302 50.733 21.2969C50.4981 20.9635 50.3807 20.5431 50.3807 20.0355V11.3537ZM56.4659 25.4446C56.2386 25.4446 56.036 25.4257 55.858 25.3878C55.6799 25.3537 55.5568 25.3196 55.4886 25.2855L55.8295 24.1037C56.1553 24.187 56.4432 24.2173 56.6932 24.1946C56.9432 24.1719 57.1648 24.0601 57.358 23.8594C57.5549 23.6624 57.7348 23.3423 57.8977 22.8991L58.1477 22.2173L54.9205 13.4446H56.375L58.7841 20.3991H58.875L61.2841 13.4446H62.7386L59.0341 23.4446C58.8674 23.8954 58.661 24.2685 58.4148 24.5639C58.1686 24.8632 57.8826 25.0848 57.5568 25.2287C57.2348 25.3726 56.8712 25.4446 56.4659 25.4446ZM64.5085 25.4446V13.4446H65.804V14.831H65.9631C66.0616 14.6795 66.1979 14.4863 66.3722 14.2514C66.5502 14.0128 66.804 13.8007 67.1335 13.6151C67.4669 13.4257 67.9176 13.331 68.4858 13.331C69.2206 13.331 69.8684 13.5147 70.429 13.8821C70.9896 14.2495 71.4271 14.7704 71.7415 15.4446C72.0559 16.1188 72.2131 16.9143 72.2131 17.831C72.2131 18.7552 72.0559 19.5563 71.7415 20.2344C71.4271 20.9086 70.9915 21.4313 70.4347 21.8026C69.8778 22.17 69.2358 22.3537 68.5085 22.3537C67.9479 22.3537 67.4991 22.2609 67.1619 22.0753C66.8248 21.8859 66.5653 21.6719 66.3835 21.4332C66.2017 21.1908 66.0616 20.9901 65.9631 20.831H65.8494V25.4446H64.5085ZM65.8267 17.8082C65.8267 18.4673 65.9233 19.0488 66.1165 19.5526C66.3097 20.0526 66.5919 20.4446 66.9631 20.7287C67.3343 21.009 67.7888 21.1491 68.3267 21.1491C68.8873 21.1491 69.3551 21.0014 69.7301 20.706C70.1089 20.4067 70.393 20.0052 70.5824 19.5014C70.7756 18.9938 70.8722 18.4295 70.8722 17.8082C70.8722 17.1946 70.7775 16.6416 70.5881 16.1491C70.4025 15.6529 70.1203 15.2609 69.7415 14.973C69.3665 14.6813 68.8949 14.5355 68.3267 14.5355C67.7813 14.5355 67.3229 14.6738 66.9517 14.9503C66.5805 15.223 66.3002 15.6056 66.1108 16.098C65.9214 16.5866 65.8267 17.1567 65.8267 17.8082ZM77.9176 22.3537C77.0767 22.3537 76.3513 22.1681 75.7415 21.7969C75.1354 21.4219 74.6676 20.8991 74.3381 20.2287C74.0123 19.5545 73.8494 18.7704 73.8494 17.8764C73.8494 16.9825 74.0123 16.1946 74.3381 15.5128C74.6676 14.8272 75.1259 14.2931 75.7131 13.9105C76.304 13.5241 76.9934 13.331 77.7812 13.331C78.2358 13.331 78.6847 13.4067 79.1278 13.5582C79.571 13.7098 79.9744 13.956 80.3381 14.2969C80.7017 14.634 80.9915 15.081 81.2074 15.6378C81.4233 16.1946 81.5312 16.8802 81.5312 17.6946V18.2628H74.804V17.1037H80.1676C80.1676 16.6113 80.0691 16.1719 79.8722 15.7855C79.679 15.3991 79.4025 15.0942 79.0426 14.8707C78.6866 14.6473 78.2661 14.5355 77.7812 14.5355C77.2472 14.5355 76.785 14.6681 76.3949 14.9332C76.0085 15.1946 75.7112 15.5355 75.5028 15.956C75.2945 16.3764 75.1903 16.8272 75.1903 17.3082V18.081C75.1903 18.7401 75.304 19.2988 75.5312 19.7571C75.7623 20.2116 76.0824 20.5582 76.4915 20.7969C76.9006 21.0317 77.3759 21.1491 77.9176 21.1491C78.2699 21.1491 78.5881 21.0999 78.8722 21.0014C79.16 20.8991 79.4081 20.7476 79.6165 20.5469C79.8248 20.3423 79.9858 20.0885 80.0994 19.7855L81.3949 20.1491C81.2585 20.5885 81.0294 20.9749 80.7074 21.3082C80.3854 21.6378 79.9877 21.8954 79.5142 22.081C79.0407 22.2628 78.5085 22.3537 77.9176 22.3537ZM89.7528 15.3991L88.5483 15.7401C88.4725 15.5393 88.3608 15.3442 88.2131 15.1548C88.0691 14.9616 87.8722 14.8026 87.6222 14.6776C87.3722 14.5526 87.0521 14.4901 86.6619 14.4901C86.1278 14.4901 85.6828 14.6132 85.3267 14.8594C84.9744 15.1018 84.7983 15.4105 84.7983 15.7855C84.7983 16.1188 84.9195 16.3821 85.1619 16.5753C85.4044 16.7685 85.7831 16.9295 86.2983 17.0582L87.5938 17.3764C88.3741 17.5658 88.9555 17.8556 89.3381 18.2457C89.7206 18.6321 89.9119 19.1302 89.9119 19.7401C89.9119 20.2401 89.768 20.687 89.4801 21.081C89.196 21.4749 88.7983 21.7855 88.2869 22.0128C87.7756 22.2401 87.1809 22.3537 86.5028 22.3537C85.6127 22.3537 84.8759 22.1605 84.2926 21.7741C83.7093 21.3878 83.34 20.8234 83.1847 20.081L84.4574 19.7628C84.5786 20.2325 84.8078 20.5848 85.1449 20.8196C85.4858 21.0545 85.9309 21.1719 86.4801 21.1719C87.1051 21.1719 87.6013 21.0393 87.9688 20.7741C88.34 20.5052 88.5256 20.1832 88.5256 19.8082C88.5256 19.5052 88.4195 19.2514 88.2074 19.0469C87.9953 18.8385 87.6695 18.6832 87.2301 18.581L85.7756 18.2401C84.9763 18.0507 84.3892 17.7571 84.0142 17.3594C83.643 16.9579 83.4574 16.456 83.4574 15.8537C83.4574 15.3613 83.5956 14.9257 83.8722 14.5469C84.1525 14.1681 84.5331 13.8707 85.0142 13.6548C85.4991 13.4389 86.0483 13.331 86.6619 13.331C87.5256 13.331 88.2036 13.5204 88.696 13.8991C89.1922 14.2779 89.5445 14.7779 89.7528 15.3991Z" fill="white"/>
</svg>
