<svg width="153" height="33" viewBox="0 0 153 33" fill="none" xmlns="http://www.w3.org/2000/svg">
<path d="M0 16.1719C0 7.33532 7.16344 0.171875 16 0.171875H137C145.837 0.171875 153 7.33532 153 16.1719C153 25.0084 145.837 32.1719 137 32.1719H16C7.16344 32.1719 0 25.0084 0 16.1719Z" fill="#CF4D74"/>
<path d="M23.2273 16.3537C23.2273 17.581 23.0057 18.6416 22.5625 19.5355C22.1193 20.4295 21.5114 21.1188 20.7386 21.6037C19.9659 22.0885 19.0833 22.331 18.0909 22.331C17.0985 22.331 16.2159 22.0885 15.4432 21.6037C14.6705 21.1188 14.0625 20.4295 13.6193 19.5355C13.1761 18.6416 12.9545 17.581 12.9545 16.3537C12.9545 15.1264 13.1761 14.0658 13.6193 13.1719C14.0625 12.2779 14.6705 11.5885 15.4432 11.1037C16.2159 10.6188 17.0985 10.3764 18.0909 10.3764C19.0833 10.3764 19.9659 10.6188 20.7386 11.1037C21.5114 11.5885 22.1193 12.2779 22.5625 13.1719C23.0057 14.0658 23.2273 15.1264 23.2273 16.3537ZM21.8636 16.3537C21.8636 15.3461 21.6951 14.4957 21.358 13.8026C21.0246 13.1094 20.572 12.5848 20 12.2287C19.4318 11.8726 18.7955 11.6946 18.0909 11.6946C17.3864 11.6946 16.7481 11.8726 16.1761 12.2287C15.608 12.5848 15.1553 13.1094 14.8182 13.8026C14.4848 14.4957 14.3182 15.3461 14.3182 16.3537C14.3182 17.3613 14.4848 18.2116 14.8182 18.9048C15.1553 19.598 15.608 20.1226 16.1761 20.4787C16.7481 20.8348 17.3864 21.0128 18.0909 21.0128C18.7955 21.0128 19.4318 20.8348 20 20.4787C20.572 20.1226 21.0246 19.598 21.358 18.9048C21.6951 18.2116 21.8636 17.3613 21.8636 16.3537ZM25.4148 22.1719V13.4446H26.7102V14.7628H26.8011C26.9602 14.331 27.2481 13.9806 27.6648 13.7116C28.0814 13.4427 28.5511 13.3082 29.0739 13.3082C29.1723 13.3082 29.2955 13.3101 29.4432 13.3139C29.5909 13.3177 29.7027 13.3234 29.7784 13.331V14.6946C29.733 14.6832 29.6288 14.6662 29.4659 14.6435C29.3068 14.617 29.1383 14.6037 28.9602 14.6037C28.536 14.6037 28.1572 14.6927 27.8239 14.8707C27.4943 15.045 27.233 15.2874 27.0398 15.598C26.8504 15.9048 26.7557 16.2552 26.7557 16.6491V22.1719H25.4148ZM34.625 25.6264C33.9773 25.6264 33.4205 25.5431 32.9545 25.3764C32.4886 25.2135 32.1004 24.9976 31.7898 24.7287C31.483 24.4635 31.2386 24.1795 31.0568 23.8764L32.125 23.1264C32.2462 23.2855 32.3996 23.4673 32.5852 23.6719C32.7708 23.8802 33.0246 24.0601 33.3466 24.2116C33.6723 24.367 34.0985 24.4446 34.625 24.4446C35.3295 24.4446 35.911 24.2741 36.3693 23.9332C36.8277 23.5923 37.0568 23.0582 37.0568 22.331V20.5582H36.9432C36.8447 20.7173 36.7045 20.9143 36.5227 21.1491C36.3447 21.3802 36.0871 21.5866 35.75 21.7685C35.4167 21.9465 34.9659 22.0355 34.3977 22.0355C33.6932 22.0355 33.0606 21.8688 32.5 21.5355C31.9432 21.2022 31.5019 20.7173 31.1761 20.081C30.8542 19.4446 30.6932 18.6719 30.6932 17.7628C30.6932 16.8688 30.8504 16.0904 31.1648 15.4276C31.4792 14.7609 31.9167 14.2457 32.4773 13.8821C33.0379 13.5147 33.6856 13.331 34.4205 13.331C34.9886 13.331 35.4394 13.4257 35.7727 13.6151C36.1098 13.8007 36.3674 14.0128 36.5455 14.2514C36.7273 14.4863 36.8674 14.6795 36.9659 14.831H37.1023V13.4446H38.3977V22.4219C38.3977 23.1719 38.2273 23.7817 37.8864 24.2514C37.5492 24.7249 37.0947 25.0715 36.5227 25.2912C35.9545 25.5147 35.322 25.6264 34.625 25.6264ZM34.5795 20.831C35.1174 20.831 35.572 20.7079 35.9432 20.4616C36.3144 20.2154 36.5966 19.8613 36.7898 19.3991C36.983 18.937 37.0795 18.384 37.0795 17.7401C37.0795 17.1113 36.9848 16.5563 36.7955 16.0753C36.6061 15.5942 36.3258 15.2173 35.9545 14.9446C35.5833 14.6719 35.125 14.5355 34.5795 14.5355C34.0114 14.5355 33.5379 14.6795 33.1591 14.9673C32.7841 15.2552 32.5019 15.6416 32.3125 16.1264C32.1269 16.6113 32.0341 17.1491 32.0341 17.7401C32.0341 18.3461 32.1288 18.8821 32.3182 19.348C32.5114 19.8101 32.7955 20.1738 33.1705 20.4389C33.5492 20.7003 34.0189 20.831 34.5795 20.831ZM43.4205 22.3764C42.8674 22.3764 42.3655 22.2723 41.9148 22.0639C41.464 21.8518 41.1061 21.5469 40.8409 21.1491C40.5758 20.7476 40.4432 20.2628 40.4432 19.6946C40.4432 19.1946 40.5417 18.7893 40.7386 18.4787C40.9356 18.1643 41.1989 17.9181 41.5284 17.7401C41.858 17.562 42.2216 17.4295 42.6193 17.3423C43.0208 17.2514 43.4242 17.1795 43.8295 17.1264C44.3598 17.0582 44.7898 17.0071 45.1193 16.973C45.4527 16.9351 45.6951 16.8726 45.8466 16.7855C46.0019 16.6984 46.0795 16.5469 46.0795 16.331V16.2855C46.0795 15.7249 45.9261 15.2893 45.6193 14.9787C45.3163 14.6681 44.8561 14.5128 44.2386 14.5128C43.5985 14.5128 43.0966 14.6529 42.733 14.9332C42.3693 15.2135 42.1136 15.5128 41.9659 15.831L40.6932 15.3764C40.9205 14.8461 41.2235 14.4332 41.6023 14.1378C41.9848 13.8385 42.4015 13.6302 42.8523 13.5128C43.3068 13.3916 43.7538 13.331 44.1932 13.331C44.4735 13.331 44.7955 13.3651 45.1591 13.4332C45.5265 13.4976 45.8807 13.6321 46.2216 13.8366C46.5663 14.0412 46.8523 14.3499 47.0795 14.7628C47.3068 15.1757 47.4205 15.7287 47.4205 16.4219V22.1719H46.0795V20.9901H46.0114C45.9205 21.1795 45.7689 21.3821 45.5568 21.598C45.3447 21.8139 45.0625 21.9976 44.7102 22.1491C44.358 22.3007 43.928 22.3764 43.4205 22.3764ZM43.625 21.1719C44.1553 21.1719 44.6023 21.0677 44.9659 20.8594C45.3333 20.651 45.6098 20.3821 45.7955 20.0526C45.9848 19.723 46.0795 19.3764 46.0795 19.0128V17.7855C46.0227 17.8537 45.8977 17.9162 45.7045 17.973C45.5152 18.026 45.2955 18.0734 45.0455 18.1151C44.7992 18.1529 44.5587 18.187 44.3239 18.2173C44.0928 18.2438 43.9053 18.2666 43.7614 18.2855C43.4129 18.331 43.0871 18.4048 42.7841 18.5071C42.4848 18.6056 42.2424 18.7552 42.0568 18.956C41.875 19.1529 41.7841 19.4219 41.7841 19.7628C41.7841 20.2287 41.9564 20.581 42.3011 20.8196C42.6496 21.0545 43.0909 21.1719 43.625 21.1719ZM51.2088 16.9219V22.1719H49.8679V13.4446H51.1634V14.8082H51.277C51.4815 14.3651 51.7921 14.009 52.2088 13.7401C52.6255 13.4673 53.1634 13.331 53.8224 13.331C54.4134 13.331 54.9304 13.4522 55.3736 13.6946C55.8168 13.9332 56.1615 14.2969 56.4077 14.7855C56.6539 15.2704 56.777 15.884 56.777 16.6264V22.1719H55.4361V16.7173C55.4361 16.0317 55.258 15.4976 54.902 15.1151C54.5459 14.7287 54.0573 14.5355 53.4361 14.5355C53.008 14.5355 52.6255 14.6283 52.2884 14.8139C51.955 14.9995 51.6918 15.2704 51.4986 15.6264C51.3054 15.9825 51.2088 16.4143 51.2088 16.9219ZM59.2273 22.1719V13.4446H60.5682V22.1719H59.2273ZM59.9091 11.9901C59.6477 11.9901 59.4223 11.901 59.233 11.723C59.0473 11.545 58.9545 11.331 58.9545 11.081C58.9545 10.831 59.0473 10.617 59.233 10.4389C59.4223 10.2609 59.6477 10.1719 59.9091 10.1719C60.1705 10.1719 60.3939 10.2609 60.5795 10.4389C60.7689 10.617 60.8636 10.831 60.8636 11.081C60.8636 11.331 60.7689 11.545 60.5795 11.723C60.3939 11.901 60.1705 11.9901 59.9091 11.9901ZM66.5696 22.3537C65.7514 22.3537 65.0469 22.1605 64.456 21.7741C63.8651 21.3878 63.4105 20.8556 63.0923 20.1776C62.7741 19.4995 62.6151 18.7249 62.6151 17.8537C62.6151 16.9673 62.7779 16.1851 63.1037 15.5071C63.4332 14.8253 63.8916 14.2931 64.4787 13.9105C65.0696 13.5241 65.759 13.331 66.5469 13.331C67.1605 13.331 67.7135 13.4446 68.206 13.6719C68.6984 13.8991 69.1018 14.2173 69.4162 14.6264C69.7306 15.0355 69.9257 15.5128 70.0014 16.0582H68.6605C68.5582 15.6605 68.331 15.3082 67.9787 15.0014C67.6302 14.6908 67.1605 14.5355 66.5696 14.5355C66.0469 14.5355 65.5885 14.6719 65.1946 14.9446C64.8045 15.2135 64.4995 15.5942 64.2798 16.0866C64.0639 16.5753 63.956 17.1491 63.956 17.8082C63.956 18.4825 64.062 19.0696 64.2741 19.5696C64.4901 20.0696 64.7931 20.4579 65.1832 20.7344C65.5772 21.0109 66.0393 21.1491 66.5696 21.1491C66.9181 21.1491 67.2344 21.0885 67.5185 20.9673C67.8026 20.8461 68.0431 20.6719 68.2401 20.4446C68.437 20.2173 68.5772 19.9446 68.6605 19.6264H70.0014C69.9257 20.1416 69.7382 20.6056 69.4389 21.0185C69.1435 21.4276 68.7514 21.7533 68.2628 21.9957C67.7779 22.2344 67.2135 22.3537 66.5696 22.3537ZM82.6435 15.3991L81.4389 15.7401C81.3632 15.5393 81.2514 15.3442 81.1037 15.1548C80.9598 14.9616 80.7628 14.8026 80.5128 14.6776C80.2628 14.5526 79.9427 14.4901 79.5526 14.4901C79.0185 14.4901 78.5734 14.6132 78.2173 14.8594C77.8651 15.1018 77.6889 15.4105 77.6889 15.7855C77.6889 16.1188 77.8101 16.3821 78.0526 16.5753C78.295 16.7685 78.6738 16.9295 79.1889 17.0582L80.4844 17.3764C81.2647 17.5658 81.8461 17.8556 82.2287 18.2457C82.6113 18.6321 82.8026 19.1302 82.8026 19.7401C82.8026 20.2401 82.6586 20.687 82.3707 21.081C82.0866 21.4749 81.6889 21.7855 81.1776 22.0128C80.6662 22.2401 80.0715 22.3537 79.3935 22.3537C78.5033 22.3537 77.7666 22.1605 77.1832 21.7741C76.5999 21.3878 76.2306 20.8234 76.0753 20.081L77.348 19.7628C77.4692 20.2325 77.6984 20.5848 78.0355 20.8196C78.3764 21.0545 78.8215 21.1719 79.3707 21.1719C79.9957 21.1719 80.492 21.0393 80.8594 20.7741C81.2306 20.5052 81.4162 20.1832 81.4162 19.8082C81.4162 19.5052 81.3101 19.2514 81.098 19.0469C80.8859 18.8385 80.5601 18.6832 80.1207 18.581L78.6662 18.2401C77.867 18.0507 77.2798 17.7571 76.9048 17.3594C76.5336 16.9579 76.348 16.456 76.348 15.8537C76.348 15.3613 76.4863 14.9257 76.7628 14.5469C77.0431 14.1681 77.4238 13.8707 77.9048 13.6548C78.3897 13.4389 78.9389 13.331 79.5526 13.331C80.4162 13.331 81.0942 13.5204 81.5866 13.8991C82.0829 14.2779 82.4351 14.7779 82.6435 15.3991ZM86.071 18.9901L86.0483 17.331H86.321L90.1392 13.4446H91.7983L87.7301 17.5582H87.6165L86.071 18.9901ZM84.821 22.1719V10.5355H86.1619V22.1719H84.821ZM90.3665 22.1719L86.9574 17.8537L87.9119 16.9219L92.071 22.1719H90.3665ZM93.5241 22.1719V13.4446H94.8651V22.1719H93.5241ZM94.206 11.9901C93.9446 11.9901 93.7192 11.901 93.5298 11.723C93.3442 11.545 93.2514 11.331 93.2514 11.081C93.2514 10.831 93.3442 10.617 93.5298 10.4389C93.7192 10.2609 93.9446 10.1719 94.206 10.1719C94.4673 10.1719 94.6908 10.2609 94.8764 10.4389C95.0658 10.617 95.1605 10.831 95.1605 11.081C95.1605 11.331 95.0658 11.545 94.8764 11.723C94.6908 11.901 94.4673 11.9901 94.206 11.9901ZM98.6619 16.9219V22.1719H97.321V13.4446H98.6165V14.8082H98.7301C98.9347 14.3651 99.2453 14.009 99.6619 13.7401C100.079 13.4673 100.616 13.331 101.276 13.331C101.866 13.331 102.384 13.4522 102.827 13.6946C103.27 13.9332 103.615 14.2969 103.861 14.7855C104.107 15.2704 104.23 15.884 104.23 16.6264V22.1719H102.889V16.7173C102.889 16.0317 102.711 15.4976 102.355 15.1151C101.999 14.7287 101.51 14.5355 100.889 14.5355C100.461 14.5355 100.079 14.6283 99.7415 14.8139C99.4081 14.9995 99.1449 15.2704 98.9517 15.6264C98.7585 15.9825 98.6619 16.4143 98.6619 16.9219ZM110.226 22.3537C109.408 22.3537 108.703 22.1605 108.112 21.7741C107.521 21.3878 107.067 20.8556 106.749 20.1776C106.43 19.4995 106.271 18.7249 106.271 17.8537C106.271 16.9673 106.434 16.1851 106.76 15.5071C107.089 14.8253 107.548 14.2931 108.135 13.9105C108.726 13.5241 109.415 13.331 110.203 13.331C110.817 13.331 111.37 13.4446 111.862 13.6719C112.355 13.8991 112.758 14.2173 113.072 14.6264C113.387 15.0355 113.582 15.5128 113.658 16.0582H112.317C112.214 15.6605 111.987 15.3082 111.635 15.0014C111.286 14.6908 110.817 14.5355 110.226 14.5355C109.703 14.5355 109.245 14.6719 108.851 14.9446C108.461 15.2135 108.156 15.5942 107.936 16.0866C107.72 16.5753 107.612 17.1491 107.612 17.8082C107.612 18.4825 107.718 19.0696 107.93 19.5696C108.146 20.0696 108.449 20.4579 108.839 20.7344C109.233 21.0109 109.696 21.1491 110.226 21.1491C110.574 21.1491 110.891 21.0885 111.175 20.9673C111.459 20.8461 111.699 20.6719 111.896 20.4446C112.093 20.2173 112.233 19.9446 112.317 19.6264H113.658C113.582 20.1416 113.394 20.6056 113.095 21.0185C112.8 21.4276 112.408 21.7533 111.919 21.9957C111.434 22.2344 110.87 22.3537 110.226 22.3537ZM118.186 22.3764C117.633 22.3764 117.131 22.2723 116.68 22.0639C116.23 21.8518 115.872 21.5469 115.607 21.1491C115.341 20.7476 115.209 20.2628 115.209 19.6946C115.209 19.1946 115.307 18.7893 115.504 18.4787C115.701 18.1643 115.964 17.9181 116.294 17.7401C116.624 17.562 116.987 17.4295 117.385 17.3423C117.786 17.2514 118.19 17.1795 118.595 17.1264C119.125 17.0582 119.555 17.0071 119.885 16.973C120.218 16.9351 120.461 16.8726 120.612 16.7855C120.768 16.6984 120.845 16.5469 120.845 16.331V16.2855C120.845 15.7249 120.692 15.2893 120.385 14.9787C120.082 14.6681 119.622 14.5128 119.004 14.5128C118.364 14.5128 117.862 14.6529 117.499 14.9332C117.135 15.2135 116.879 15.5128 116.732 15.831L115.459 15.3764C115.686 14.8461 115.989 14.4332 116.368 14.1378C116.75 13.8385 117.167 13.6302 117.618 13.5128C118.072 13.3916 118.519 13.331 118.959 13.331C119.239 13.331 119.561 13.3651 119.925 13.4332C120.292 13.4976 120.646 13.6321 120.987 13.8366C121.332 14.0412 121.618 14.3499 121.845 14.7628C122.072 15.1757 122.186 15.7287 122.186 16.4219V22.1719H120.845V20.9901H120.777C120.686 21.1795 120.535 21.3821 120.322 21.598C120.11 21.8139 119.828 21.9976 119.476 22.1491C119.124 22.3007 118.694 22.3764 118.186 22.3764ZM118.391 21.1719C118.921 21.1719 119.368 21.0677 119.732 20.8594C120.099 20.651 120.375 20.3821 120.561 20.0526C120.75 19.723 120.845 19.3764 120.845 19.0128V17.7855C120.788 17.8537 120.663 17.9162 120.47 17.973C120.281 18.026 120.061 18.0734 119.811 18.1151C119.565 18.1529 119.324 18.187 119.089 18.2173C118.858 18.2438 118.671 18.2666 118.527 18.2855C118.179 18.331 117.853 18.4048 117.55 18.5071C117.25 18.6056 117.008 18.7552 116.822 18.956C116.641 19.1529 116.55 19.4219 116.55 19.7628C116.55 20.2287 116.722 20.581 117.067 20.8196C117.415 21.0545 117.857 21.1719 118.391 21.1719ZM124.634 22.1719V13.4446H125.929V14.7628H126.02C126.179 14.331 126.467 13.9806 126.884 13.7116C127.3 13.4427 127.77 13.3082 128.293 13.3082C128.391 13.3082 128.514 13.3101 128.662 13.3139C128.81 13.3177 128.921 13.3234 128.997 13.331V14.6946C128.952 14.6832 128.848 14.6662 128.685 14.6435C128.526 14.617 128.357 14.6037 128.179 14.6037C127.755 14.6037 127.376 14.6927 127.043 14.8707C126.713 15.045 126.452 15.2874 126.259 15.598C126.069 15.9048 125.974 16.2552 125.974 16.6491V22.1719H124.634ZM133.98 22.3537C133.139 22.3537 132.414 22.1681 131.804 21.7969C131.198 21.4219 130.73 20.8991 130.401 20.2287C130.075 19.5545 129.912 18.7704 129.912 17.8764C129.912 16.9825 130.075 16.1946 130.401 15.5128C130.73 14.8272 131.188 14.2931 131.776 13.9105C132.366 13.5241 133.056 13.331 133.844 13.331C134.298 13.331 134.747 13.4067 135.19 13.5582C135.634 13.7098 136.037 13.956 136.401 14.2969C136.764 14.634 137.054 15.081 137.27 15.6378C137.486 16.1946 137.594 16.8802 137.594 17.6946V18.2628H130.866V17.1037H136.23C136.23 16.6113 136.132 16.1719 135.935 15.7855C135.741 15.3991 135.465 15.0942 135.105 14.8707C134.749 14.6473 134.329 14.5355 133.844 14.5355C133.31 14.5355 132.848 14.6681 132.457 14.9332C132.071 15.1946 131.774 15.5355 131.565 15.956C131.357 16.3764 131.253 16.8272 131.253 17.3082V18.081C131.253 18.7401 131.366 19.2988 131.594 19.7571C131.825 20.2116 132.145 20.5582 132.554 20.7969C132.963 21.0317 133.438 21.1491 133.98 21.1491C134.332 21.1491 134.651 21.0999 134.935 21.0014C135.223 20.8991 135.471 20.7476 135.679 20.5469C135.887 20.3423 136.048 20.0885 136.162 19.7855L137.457 20.1491C137.321 20.5885 137.092 20.9749 136.77 21.3082C136.448 21.6378 136.05 21.8954 135.577 22.081C135.103 22.2628 134.571 22.3537 133.98 22.3537Z" fill="white"/>
</svg>
